#define desk_width 10
#define desk_height 10
static unsigned char desk_bits[] = {
   0x20, 0x00, 0x60, 0x00, 0xf0, 0x00, 0xf8, 0x01, 0xfe, 0x03, 0xfc, 0x00,
   0x78, 0x00, 0x34, 0x00, 0x22, 0x00, 0x01, 0x00 };
